# xmcd
#
# Track frame offsets:
#	150
#	13613
#	30760
#	45791
#	58419
#
# Disc length: 940 seconds
#
# Revision: 0
# Processed by: cddbd v1.5.2PL0 Copyright (c) Steve Scherf et al.
# Submitted via: FairStars CD Ripper 1.90
#
DISCID=2e03aa05
DTITLE=Caroline Sky - Demo
DYEAR=2015
DGENRE=Blues
TTITLE0=Awake now
TTITLE1=one sided conversation
TTITLE2=Magic Show
TTITLE3=Heartbreak Lullaby
TTITLE4=Let Them Go
EXTD=
EXTT0=
EXTT1=
EXTT2=
EXTT3=
EXTT4=
PLAYORDER=
